<?xml version="1.0" standalone="no"?>
<!DOCTYPE svg PUBLIC "-//W3C//DTD SVG 20010904//EN"
 "http://www.w3.org/TR/2001/REC-SVG-20010904/DTD/svg10.dtd">
<svg version="1.0" xmlns="http://www.w3.org/2000/svg"
 width="500.000000pt" height="95.000000pt" viewBox="0 0 500.000000 95.000000"
 preserveAspectRatio="xMidYMid meet">
<metadata>
Created by potrace 1.16, written by Peter Selinger 2001-2019
</metadata>
<g transform="translate(0.000000,95.000000) scale(0.100000,-0.100000)"
fill="#000000" stroke="none">
<path d="M940 689 l0 -180 90 2 91 2 73 -86 c40 -47 82 -97 94 -111 18 -24 26
-26 100 -26 45 0 83 3 85 8 3 4 -48 69 -114 144 -65 75 -119 141 -119 147 0 5
46 63 103 128 56 65 108 126 116 136 13 16 8 17 -75 17 l-89 0 -89 -104 c-80
-95 -115 -124 -130 -108 -3 3 -6 52 -6 109 l0 103 -65 0 -65 0 0 -181z"/>
<path d="M2110 865 c0 -5 83 -248 95 -277 7 -17 -2 -18 -98 -18 -91 0 -106 -2
-112 -17 -28 -70 -85 -237 -85 -249 0 -11 16 -14 68 -14 l68 0 23 70 22 70
148 0 c81 0 150 3 153 6 6 5 -18 78 -119 362 l-26 72 -68 0 c-38 0 -69 -2 -69
-5z"/>
<path d="M2480 805 l0 -65 115 0 c63 0 115 -3 115 -7 -1 -5 -52 -66 -115 -138
l-115 -130 0 -87 0 -88 65 0 65 0 0 58 c0 66 -32 22 273 375 64 75 117 138
117 141 0 3 -117 6 -260 6 l-260 0 0 -65z"/>
<path d="M3090 580 l0 -290 65 0 65 0 0 290 0 290 -65 0 -65 0 0 -290z"/>
<path d="M3604 833 c-9 -21 -31 -73 -49 -116 -30 -70 -37 -116 -15 -102 10 6
103 -34 112 -49 4 -6 8 -8 8 -4 0 10 103 -31 111 -44 3 -5 10 -9 15 -9 19 2
74 -21 74 -30 0 -6 5 -7 10 -4 16 10 12 -9 -20 -83 -43 -101 -43 -102 38 -102
l67 0 50 122 c28 67 51 125 53 128 1 4 -75 39 -170 79 -95 41 -177 77 -182 81
-5 5 5 42 23 84 17 41 31 77 31 80 0 3 -32 6 -71 6 l-70 0 -15 -37z"/>
<path d="M1540 685 l0 -45 150 0 150 0 0 45 0 45 -150 0 -150 0 0 -45z"/>
</g>
</svg>
